<svg width="59" height="53" viewBox="0 0 59 53" fill="none" xmlns="http://www.w3.org/2000/svg">
<path d="M57.9502 22.592L47.1275 3.9057C46.4367 2.71833 45.4449 1.73258 44.2515 1.04714C43.0581 0.361689 41.7049 0.000595721 40.3273 0H18.6726C17.2957 0.000472114 15.943 0.361558 14.7503 1.04706C13.5576 1.73256 12.5668 2.71838 11.8771 3.9057L1.07293 22.592C0.383502 23.7807 0.0205078 25.1294 0.0205078 26.5023C0.0205078 27.8752 0.383502 29.2239 1.07293 30.4126L11.8956 49.0897C12.584 50.2737 13.5721 51.2571 14.7613 51.9417C15.9505 52.6262 17.2992 52.988 18.6726 52.9907H40.3273C41.7054 52.9901 43.0591 52.6285 44.2527 51.9422C45.4462 51.2559 46.4376 50.269 47.1275 49.0804L57.9502 30.4034C58.6379 29.2158 58.9999 27.8688 58.9999 26.4977C58.9999 25.1266 58.6379 23.7796 57.9502 22.592ZM31.2325 14.9749C32.0314 13.5543 32.8629 12.1567 33.6711 10.7407C33.7327 10.6043 33.8359 10.4906 33.9659 10.4159C34.096 10.3411 34.2463 10.3091 34.3957 10.3242C35.9796 10.3242 37.5682 10.3242 39.1521 10.3242C39.2944 10.3086 39.438 10.3383 39.5623 10.4089C39.6866 10.4796 39.7853 10.5876 39.8442 10.7175C40.6478 12.129 41.47 13.5404 42.2968 14.9425C42.366 15.0391 42.4032 15.1548 42.4032 15.2734C42.4032 15.3921 42.366 15.5077 42.2968 15.6043C41.4607 17.025 40.6525 18.4503 39.8071 19.8663C39.7448 19.9487 39.6659 20.0171 39.5755 20.0673C39.4852 20.1175 39.3852 20.1483 39.2822 20.1579C38.4415 20.1902 37.6007 20.1579 36.7553 20.1579C35.9332 20.1579 35.1064 20.1579 34.2842 20.1579C34.1733 20.1489 34.0656 20.1162 33.9686 20.0619C33.8716 20.0075 33.7875 19.9329 33.7222 19.8432C32.8722 18.4318 32.0547 17.0065 31.2511 15.5719C31.2045 15.4798 31.1787 15.3786 31.1755 15.2755C31.1723 15.1723 31.1918 15.0698 31.2325 14.9749ZM12.1047 21.361C12.0421 21.2722 12.0085 21.1664 12.0085 21.0579C12.0085 20.9494 12.0421 20.8436 12.1047 20.7548C13.653 18.114 15.1904 15.4639 16.7171 12.8046C16.7677 12.7147 16.8446 12.6422 16.9375 12.5967C17.0304 12.5513 17.1349 12.535 17.2373 12.5501H21.8126C23.3454 12.5501 24.8875 12.5501 26.425 12.5501C26.5213 12.5418 26.6178 12.5636 26.7011 12.6125C26.7844 12.6615 26.8502 12.7351 26.8895 12.8231C28.427 15.4886 29.9737 18.1449 31.5066 20.8196C31.54 20.8922 31.5573 20.9711 31.5573 21.051C31.5573 21.1309 31.54 21.2098 31.5066 21.2824C29.9737 23.9525 28.427 26.6134 26.8895 29.2743C26.8502 29.3623 26.7844 29.4359 26.7011 29.4848C26.6178 29.5337 26.5213 29.5556 26.425 29.5473H17.1723C17.0747 29.5495 16.9786 29.523 16.896 29.4712C16.8134 29.4194 16.7479 29.3444 16.7078 29.2557C15.175 26.6149 13.6406 23.9833 12.1047 21.361ZM24.646 44.9989H24.2976C22.5883 44.9989 20.8743 44.9989 19.1882 44.9989C19.0945 45.0091 18.9998 44.9907 18.9168 44.9461C18.8339 44.9014 18.7665 44.8327 18.7237 44.749C17.7947 43.1525 16.8657 41.5605 15.9646 39.9733C15.9054 39.8744 15.8794 39.7593 15.8903 39.6447L24.7435 44.8832C24.7145 44.9198 24.6881 44.9585 24.6646 44.9989H24.646ZM27.7535 42.6851C27.3958 43.3052 27.3958 43.3052 26.778 42.9396C23.3717 40.9312 19.9531 38.9259 16.522 36.9237L16.0575 36.6507L17.7436 33.7353L29.0494 40.4314L27.7535 42.6851ZM20.2426 32.0416C20.2426 32.0138 20.2426 31.9907 20.2751 31.9583C20.3535 31.9457 20.4326 31.938 20.512 31.9351C22.37 31.9351 24.2512 31.9351 26.1184 31.9351C26.1973 31.9378 26.2746 31.9573 26.3451 31.9925C26.4157 32.0276 26.4778 32.0775 26.5272 32.1387C27.5305 33.8417 28.5152 35.5493 29.5046 37.2569C29.5522 37.3509 29.5926 37.4483 29.6254 37.5484L20.2426 32.0416ZM48.1122 31.2641C46.5825 33.8648 45.0667 36.4717 43.5648 39.0848C43.5163 39.1872 43.4371 39.272 43.338 39.3276C43.239 39.3831 43.1251 39.4066 43.0121 39.3948C41.4839 39.3948 39.9604 39.3948 38.4368 39.3948C36.9365 39.3948 35.4362 39.3948 33.9359 39.3948C33.8166 39.4083 33.6961 39.3844 33.5912 39.3263C33.4862 39.2682 33.4021 39.1789 33.3506 39.0709C31.8271 36.4285 30.2896 33.7908 28.7661 31.1438C28.7349 31.0706 28.7188 30.9919 28.7188 30.9124C28.7188 30.8329 28.7349 30.7542 28.7661 30.681C30.2942 28.0248 31.8364 25.3778 33.3646 22.7169C33.4134 22.6145 33.4926 22.5295 33.5914 22.4732C33.6902 22.417 33.8039 22.3922 33.9173 22.4022C36.9489 22.4022 39.9867 22.4022 43.0307 22.4022C43.1374 22.3922 43.2447 22.4152 43.3379 22.4682C43.431 22.5212 43.5054 22.6016 43.5509 22.6984C45.0651 25.3207 46.5871 27.943 48.1169 30.5654C48.1843 30.6643 48.2223 30.7803 48.2264 30.8998C48.2305 31.0194 48.2006 31.1377 48.1401 31.241L48.1122 31.2641Z" fill="#FFE000"/>
</svg>
